<svg width="22" height="21" viewBox="0 0 22 21" fill="none" xmlns="http://www.w3.org/2000/svg">
<path fill-rule="evenodd" clip-rule="evenodd" d="M8.61227 17V20H13.3863V17L14.9683 13.792L10.9993 8L7.03027 13.792L8.61227 17Z" stroke="#828696" stroke-width="1.5" stroke-linecap="round" stroke-linejoin="round"/>
<path fill-rule="evenodd" clip-rule="evenodd" d="M12.0186 4.39301H10.0186C9.74255 4.39301 9.51855 4.16901 9.51855 3.89301V1.89301C9.51855 1.61701 9.74255 1.39301 10.0186 1.39301H12.0186C12.2946 1.39301 12.5186 1.61701 12.5186 1.89301V3.89301C12.5186 4.16901 12.2946 4.39301 12.0186 4.39301Z" stroke="#828696" stroke-width="1.5" stroke-linecap="round" stroke-linejoin="round"/>
<path fill-rule="evenodd" clip-rule="evenodd" d="M1.76562 13.563H3.76562C4.04162 13.563 4.26562 13.339 4.26562 13.063V11.063C4.26562 10.787 4.04162 10.563 3.76562 10.563H1.76562C1.48963 10.563 1.26562 10.787 1.26562 11.063V13.063C1.26562 13.339 1.48963 13.563 1.76562 13.563Z" stroke="#828696" stroke-width="1.5" stroke-linecap="round" stroke-linejoin="round"/>
<path fill-rule="evenodd" clip-rule="evenodd" d="M20.2305 13.563H18.2305C17.9545 13.563 17.7305 13.339 17.7305 13.063V11.063C17.7305 10.787 17.9545 10.563 18.2305 10.563H20.2305C20.5065 10.563 20.7305 10.787 20.7305 11.063V13.063C20.7305 13.339 20.5065 13.563 20.2305 13.563Z" stroke="#828696" stroke-width="1.5" stroke-linecap="round" stroke-linejoin="round"/>
<path d="M9.51909 2.95001C5.70609 3.39501 2.74609 6.63101 2.74609 10.563" stroke="#828696" stroke-width="1.5" stroke-linecap="round" stroke-linejoin="round"/>
<path d="M19.2506 10.563C19.2506 6.64499 16.3106 3.41899 12.5186 2.95599" stroke="#828696" stroke-width="1.5" stroke-linecap="round" stroke-linejoin="round"/>
<path d="M8.60938 17H13.3894" stroke="#828696" stroke-width="1.5" stroke-linecap="round" stroke-linejoin="round"/>
<path d="M11 14V8" stroke="#828696" stroke-width="1.5" stroke-linecap="round" stroke-linejoin="round"/>
</svg>
