<svg width="24" height="24" viewBox="0 0 24 24" fill="none" xmlns="http://www.w3.org/2000/svg">
<g clip-path="url(#clip0_564_6315)">
<path d="M4.66228 19.9297C4.30151 19.6954 3.99124 19.3966 3.62806 18.9736C3.43954 18.7488 3.25274 18.5226 3.06765 18.2951C2.51085 17.6214 2.1597 17.3109 1.79651 17.1832C1.49623 17.0781 1.25106 16.8612 1.11496 16.58C0.978849 16.2988 0.962949 15.9765 1.07075 15.6839C1.17856 15.3913 1.40123 15.1525 1.6898 15.0198C1.97836 14.8872 2.30918 14.8717 2.60946 14.9768C3.51381 15.2931 4.12593 15.838 4.9509 16.8375C4.83786 16.7004 5.35979 17.3378 5.47163 17.4691C5.70012 17.735 5.86848 17.8967 6.00076 17.9823C6.24609 18.1428 6.70668 18.2119 7.38374 18.1463C7.4114 17.6987 7.49678 17.264 7.62666 16.8633C4.05738 16.0126 2.03703 13.7699 2.03703 9.36883C2.03703 7.91587 2.48199 6.60821 3.30937 5.51146C3.04721 4.46392 3.08689 3.19727 3.67255 1.77126C3.73902 1.60996 3.84148 1.46508 3.97252 1.34713C4.10356 1.22918 4.25989 1.14111 4.43018 1.08931C4.52759 1.06119 4.58291 1.0483 4.68032 1.03424C5.646 0.890115 7.00974 1.23343 8.78716 2.31847C9.8464 2.07718 10.9307 1.95608 12.0185 1.95757C13.1153 1.95757 14.2048 2.07943 15.2463 2.31847C17.0225 1.22523 18.3886 0.881912 19.3615 1.03424C19.4637 1.04947 19.5503 1.06939 19.6237 1.09283C19.7906 1.14646 19.9435 1.23511 20.0715 1.35253C20.1995 1.46995 20.2995 1.61328 20.3645 1.77244C20.9501 3.19727 20.9898 4.46392 20.7277 5.51029C21.5587 6.60703 22 7.90649 22 9.36883C22 13.7711 19.9869 16.0067 16.4176 16.8586C16.5679 17.3449 16.6461 17.8885 16.6461 18.4756C16.6462 19.5364 16.6414 20.5972 16.6316 21.658C16.9017 21.7154 17.1433 21.8617 17.3156 22.0723C17.4879 22.2829 17.5806 22.5449 17.5779 22.8142C17.5752 23.0835 17.4774 23.3437 17.3009 23.551C17.1244 23.7583 16.88 23.9 16.6088 23.9523C15.239 24.2195 14.2241 23.3289 14.2241 22.1654L14.2265 21.6428L14.2325 20.8167C14.2385 19.9871 14.2409 19.2489 14.2409 18.4756C14.2409 17.6589 14.0208 17.1257 13.7298 16.882C12.9349 16.2141 13.3378 14.9428 14.3792 14.8291C17.9473 14.4389 19.5948 13.0926 19.5948 9.36883C19.5948 8.24981 19.2196 7.32531 18.4969 6.55196C18.3446 6.38938 18.2424 6.18829 18.202 5.97173C18.1616 5.75517 18.1846 5.5319 18.2684 5.32749C18.468 4.84239 18.5534 4.20614 18.3838 3.43631L18.3718 3.43982C17.7813 3.60269 17.0369 3.95539 16.1374 4.5518C15.9923 4.64772 15.8275 4.71157 15.6545 4.7389C15.4814 4.76622 15.3043 4.75635 15.1356 4.70999C14.1205 4.43614 13.0718 4.29855 12.0185 4.30105C10.9482 4.30105 9.88753 4.44049 8.90141 4.71116C8.73331 4.75716 8.55695 4.76694 8.38458 4.73983C8.2122 4.71271 8.04796 4.64935 7.90326 4.55415C6.99891 3.96007 6.2509 3.60855 5.65682 3.44451C5.48365 4.20965 5.56904 4.84357 5.76746 5.32749C5.85141 5.5318 5.87462 5.755 5.83442 5.97155C5.79422 6.18811 5.69225 6.38926 5.54017 6.55196C4.82223 7.31828 4.44221 8.26036 4.44221 9.36883C4.44221 13.0856 6.09096 14.4401 9.6398 14.8291C10.68 14.9428 11.0841 16.2083 10.294 16.8773C10.0631 17.0742 9.7781 17.7351 9.7781 18.4756V22.1666C9.7781 23.3219 8.77393 24.1878 7.42102 23.957C7.14655 23.91 6.89733 23.7717 6.71596 23.5655C6.53459 23.3594 6.43233 23.0983 6.42665 22.8268C6.42097 22.5553 6.51223 22.2904 6.68482 22.0772C6.85742 21.864 7.10064 21.7159 7.37292 21.658V20.498C6.27856 20.5695 5.37422 20.3949 4.66228 19.9297Z" fill="#3474DF"/>
</g>
<defs>
<clipPath id="clip0_564_6315">
<rect width="24" height="24" fill="white"/>
</clipPath>
</defs>
</svg>
