<svg width="24" height="24" viewBox="0 0 24 24" fill="none" xmlns="http://www.w3.org/2000/svg">
<path d="M12 8.7C11.1248 8.7 10.2854 9.04768 9.66655 9.66655C9.04768 10.2854 8.7 11.1248 8.7 12C8.7 12.8752 9.04768 13.7146 9.66655 14.3335C10.2854 14.9523 11.1248 15.3 12 15.3C12.8752 15.3 13.7146 14.9523 14.3335 14.3335C14.9523 13.7146 15.3 12.8752 15.3 12C15.3 11.1248 14.9523 10.2854 14.3335 9.66655C13.7146 9.04768 12.8752 8.7 12 8.7ZM12 6.5C13.4587 6.5 14.8576 7.07946 15.8891 8.11091C16.9205 9.14236 17.5 10.5413 17.5 12C17.5 13.4587 16.9205 14.8576 15.8891 15.8891C14.8576 16.9205 13.4587 17.5 12 17.5C10.5413 17.5 9.14236 16.9205 8.11091 15.8891C7.07946 14.8576 6.5 13.4587 6.5 12C6.5 10.5413 7.07946 9.14236 8.11091 8.11091C9.14236 7.07946 10.5413 6.5 12 6.5ZM19.15 6.225C19.15 6.58967 19.0051 6.93941 18.7473 7.19727C18.4894 7.45513 18.1397 7.6 17.775 7.6C17.4103 7.6 17.0606 7.45513 16.8027 7.19727C16.5449 6.93941 16.4 6.58967 16.4 6.225C16.4 5.86033 16.5449 5.51059 16.8027 5.25273C17.0606 4.99487 17.4103 4.85 17.775 4.85C18.1397 4.85 18.4894 4.99487 18.7473 5.25273C19.0051 5.51059 19.15 5.86033 19.15 6.225ZM12 3.2C9.2786 3.2 8.8342 3.2077 7.5681 3.2638C6.7057 3.3045 6.1271 3.42 5.5903 3.629C5.1129 3.8138 4.7686 4.0349 4.4023 4.4023C4.05801 4.73494 3.79329 5.14104 3.6279 5.5903C3.4189 6.1293 3.3034 6.7068 3.2638 7.5681C3.2066 8.7825 3.2 9.2071 3.2 12C3.2 14.7214 3.2077 15.1658 3.2638 16.4319C3.3045 17.2932 3.42 17.8729 3.6279 18.4086C3.8149 18.8871 4.0349 19.2314 4.4001 19.5966C4.7708 19.9662 5.1151 20.1873 5.5881 20.3699C6.1315 20.58 6.7101 20.6966 7.5681 20.7362C8.7825 20.7934 9.2071 20.8 12 20.8C14.7214 20.8 15.1658 20.7923 16.4319 20.7362C17.2921 20.6955 17.8718 20.58 18.4086 20.3721C18.8849 20.1862 19.2314 19.9651 19.5966 19.5999C19.9673 19.2292 20.1884 18.8849 20.371 18.4119C20.58 17.8696 20.6966 17.2899 20.7362 16.4319C20.7934 15.2175 20.8 14.7929 20.8 12C20.8 9.2786 20.7923 8.8342 20.7362 7.5681C20.6955 6.7079 20.58 6.1271 20.371 5.5903C20.2052 5.1415 19.941 4.73556 19.5977 4.4023C19.2652 4.05783 18.8591 3.79308 18.4097 3.6279C17.8707 3.4189 17.2921 3.3034 16.4319 3.2638C15.2175 3.2066 14.7929 3.2 12 3.2ZM12 1C14.9887 1 15.3616 1.011 16.5342 1.066C17.7057 1.121 18.5032 1.3047 19.205 1.5775C19.931 1.8569 20.5426 2.2353 21.1542 2.8458C21.7135 3.39569 22.1463 4.06085 22.4225 4.795C22.6942 5.4957 22.879 6.2943 22.934 7.4658C22.9857 8.6384 23 9.0113 23 12C23 14.9887 22.989 15.3616 22.934 16.5342C22.879 17.7057 22.6942 18.5032 22.4225 19.205C22.1471 19.9396 21.7142 20.6049 21.1542 21.1542C20.6042 21.7134 19.939 22.1461 19.205 22.4225C18.5043 22.6942 17.7057 22.879 16.5342 22.934C15.3616 22.9857 14.9887 23 12 23C9.0113 23 8.6384 22.989 7.4658 22.934C6.2943 22.879 5.4968 22.6942 4.795 22.4225C4.06056 22.1469 3.39528 21.714 2.8458 21.1542C2.28635 20.6044 1.85352 19.9392 1.5775 19.205C1.3047 18.5043 1.121 17.7057 1.066 16.5342C1.0143 15.3616 1 14.9887 1 12C1 9.0113 1.011 8.6384 1.066 7.4658C1.121 6.2932 1.3047 5.4968 1.5775 4.795C1.85276 4.0604 2.28568 3.39505 2.8458 2.8458C3.39544 2.28615 4.06067 1.8533 4.795 1.5775C5.4968 1.3047 6.2932 1.121 7.4658 1.066C8.6384 1.0143 9.0113 1 12 1Z" fill="#3474DF"/>
</svg>
