<svg width="20" height="20" viewBox="0 0 20 20" fill="none" xmlns="http://www.w3.org/2000/svg">
<path fill-rule="evenodd" clip-rule="evenodd" d="M3.37095 3.37095H7.25404L10 0.625L12.746 3.37095H16.629V7.25404L19.375 10L16.629 12.746V16.629H12.746L10 19.375L7.25404 16.629H3.37095V12.746L0.625 10L3.37095 7.25404V3.37095ZM10.0852 4.75592C10.6861 4.75592 11.2632 4.85729 11.8005 5.04324C9.89855 5.31538 8.43618 6.9504 8.43618 8.92806C8.43618 11.0958 10.1936 12.8528 12.3609 12.8528C13.3768 12.8528 14.3025 12.4669 14.9991 11.8339C14.2553 13.8256 12.3358 15.2438 10.0849 15.2438C7.1885 15.2438 4.84137 12.8959 4.84137 10.0003C4.84137 7.10392 7.18927 4.75679 10.0849 4.75679L10.0852 4.75592ZM12.2372 6.94064L12.6645 8.26503L14.0559 8.26205L12.9286 9.07808L13.361 10.4013L12.2367 9.58116L11.1124 10.4013L11.5448 9.07808L10.4175 8.26205L11.8094 8.26503L12.2367 6.94064H12.2372Z" fill="#008B6D"/>
</svg>
