<svg width="24" height="24" viewBox="0 0 24 24" fill="none" xmlns="http://www.w3.org/2000/svg">
<path d="M11.9952 2.90018L11.9952 2.90018C12.1037 2.89875 12.2082 2.94127 12.2847 3.01852C12.2848 3.01861 12.2849 3.0187 12.285 3.01879L14.5668 5.30057H18.3016H18.302C18.5229 5.30147 18.7009 5.48116 18.7004 5.70178C18.7004 5.70188 18.7004 5.70199 18.7004 5.7021M11.9952 2.90018L18.6004 5.70178L18.7004 5.7021M11.9952 2.90018C11.8903 2.90161 11.7909 2.94474 11.7177 3.01863L11.9952 2.90018ZM18.7004 5.7021L18.7004 9.43657M18.7004 5.7021L18.7004 9.43657M18.7004 9.43657L20.9833 11.7188L20.9835 11.719C21.1386 11.875 21.1386 12.127 20.9835 12.2831L20.9833 12.2833L18.7004 14.5661L18.7004 18.3002C18.7004 18.3003 18.7004 18.3004 18.7004 18.3005V18.3006H18.6004C18.6011 18.4663 18.4673 18.6013 18.3016 18.6018L18.7004 9.43657ZM17.8999 6.10123H14.4016C14.2952 6.10123 14.1931 6.05876 14.1181 5.98343L14.1182 5.98354L14.1889 5.91284L14.1181 5.98338L12.0011 3.86576L9.88413 5.98338C9.88412 5.9834 9.8841 5.98341 9.88409 5.98343C9.80909 6.05876 9.707 6.10123 9.60058 6.10123H6.0992V9.60192C6.0992 9.70691 6.05796 9.80762 5.98439 9.88243L5.9838 9.88303L3.86666 12.0002L5.98381 14.118L5.98439 14.1186C6.05836 14.1938 6.09983 14.2953 6.0992 14.4012M17.8999 6.10123L5.9992 14.4008M17.8999 6.10123L17.8999 9.60192L17.8999 9.6031C17.9012 9.7083 17.9435 9.80888 18.0184 9.88315M17.8999 6.10123L18.0184 9.88315M6.0992 14.4012C6.0992 14.4013 6.0992 14.4014 6.0992 14.4015L5.9992 14.4008M6.0992 14.4012V14.4008H5.9992M6.0992 14.4012V17.9022M5.9992 14.4008V17.9022H6.0992M6.0992 17.9022V18.0022H9.60058M6.0992 17.9022H9.60022M9.60022 17.9022C9.60006 17.9022 9.5999 17.9022 9.59974 17.9022L9.60058 18.0022M9.60022 17.9022H9.60058V18.0022M9.60022 17.9022C9.70613 17.9014 9.80798 17.9427 9.88346 18.0171L9.88398 18.0176L12.0011 20.1354L14.1182 18.0176L14.1188 18.017C14.1943 17.9428 14.2962 17.9016 14.4018 17.9022M9.60058 18.0022C9.68013 18.0015 9.7566 18.0325 9.81325 18.0883M9.81325 18.0883L14.4016 18.0022M9.81325 18.0883L11.9304 20.2061L9.81325 18.0883ZM14.4018 17.9022C14.402 17.9022 14.4021 17.9022 14.4023 17.9022L14.4016 18.0022M14.4018 17.9022H14.4016V18.0022M14.4018 17.9022H17.8999M14.4016 18.0022H17.8999V17.9022M17.8999 17.9022H17.9999V14.4008C18.0002 14.321 18.0323 14.2447 18.089 14.1887M17.8999 17.9022V14.4008V14.4005C17.9003 14.2941 17.943 14.1924 18.0184 14.1178L18.0182 14.118L18.089 14.1887M18.089 14.1887L18.0187 14.1176M18.089 14.1887L20.2061 12.0709L20.1354 12.0002M5.91309 9.81232L3.72525 12.0002L5.91309 14.1887V9.81232ZM5.91309 9.81232C5.96827 9.7562 5.9992 9.68067 5.9992 9.60192V6.10123L5.91309 9.81232ZM18.0187 14.1176L17.9999 9.60192C18.0008 9.68107 18.0327 9.75661 18.089 9.81232L20.2061 11.9295L20.1354 12.0002M18.0187 14.1176L20.1354 12.0002M18.0187 14.1176L18.0186 9.88337M20.1354 12.0002L18.0186 9.88337M18.0186 9.88337C18.0185 9.8833 18.0184 9.88323 18.0184 9.88315M18.0186 9.88337L18.0184 9.88315M16.862 12.5933L16.862 12.5934C16.5638 15.0491 14.4754 16.8999 12.0016 16.9023H12.0015C9.29856 16.9023 7.1001 14.7035 7.1001 12.0009V12.0008C7.10325 9.5262 8.95721 7.43916 11.4228 7.14129L11.4284 7.14061L11.4284 7.14077C11.8392 7.1148 12.027 7.63755 11.6882 7.8691C10.8208 8.46548 10.3019 9.44947 10.3008 10.502C10.3009 12.2728 11.7293 13.7013 13.5002 13.7013L16.862 12.5933ZM16.862 12.5933C16.9122 12.1783 16.3725 11.9743 16.1354 12.3183L16.2178 12.3751M16.862 12.5933L16.2178 12.3751M16.2178 12.3751L16.1354 12.3184C15.5382 13.185 14.5529 13.701 13.5002 13.7013L16.2178 12.3751ZM5.30171 18.3006H5.40171L5.7005 5.40071C5.53483 5.40124 5.40104 5.53624 5.40171 5.70191H5.30171V5.70213V9.43668L3.01662 11.7189L3.01637 11.7191C2.86121 11.8752 2.86121 12.1271 3.01637 12.2832L3.01658 12.2834L5.30171 14.5685V18.3004V18.3006ZM14.1889 18.0883L12.0718 20.2061L14.1889 18.0883ZM10.0797 8.39281C10.0596 8.42837 10.0399 8.46519 10.0206 8.50302C9.92306 8.69421 9.83316 8.91795 9.75661 9.15088C9.60409 9.61503 9.50113 10.1264 9.50065 10.5012V10.5013C9.50065 12.7069 11.2945 14.5013 13.5 14.5013H13.5C14.1404 14.5012 14.9099 14.3383 15.6201 13.8958C14.799 15.387 13.4576 16.1002 12.0011 16.1013C9.73326 16.1013 7.89987 14.2681 7.89979 12.0001C7.90184 10.5566 8.6575 9.19271 10.0797 8.39281Z" fill="#006D56" stroke="#006D56" stroke-width="0.2"/>
<path fill-rule="evenodd" clip-rule="evenodd" d="M14.2453 7.00004C14.3703 6.99794 14.4819 7.07785 14.5203 7.19685L14.9498 8.52913H16.216C16.3366 8.52913 16.4441 8.6053 16.484 8.71911C16.5239 8.83291 16.4876 8.95952 16.3934 9.03486L15.4488 9.79059L15.8337 11.138C15.8665 11.2525 15.8243 11.3752 15.7281 11.4454C15.632 11.5156 15.5022 11.5183 15.4032 11.4523L14.25 10.6835L13.0969 11.4523C12.9978 11.5183 12.8681 11.5156 12.7719 11.4454C12.6757 11.3752 12.6336 11.2525 12.6663 11.138L13.0513 9.79059L12.1066 9.03486C12.0124 8.95952 11.9761 8.83291 12.016 8.71911C12.0559 8.6053 12.1634 8.52913 12.284 8.52913H13.5989L13.977 7.20597C14.0113 7.08575 14.1202 7.00214 14.2453 7.00004ZM14.2664 8.26037L14.0862 8.89112C14.0513 9.01304 13.9399 9.09709 13.8131 9.09709H13.0936L13.5536 9.46514C13.643 9.53665 13.6807 9.65484 13.6493 9.76491L13.4246 10.5512L14.0925 10.1059C14.1879 10.0424 14.3122 10.0424 14.4075 10.1059L15.0754 10.5512L14.8507 9.76491C14.8193 9.65484 14.857 9.53665 14.9464 9.46514L15.4065 9.09709H14.7429C14.6197 9.09709 14.5105 9.01756 14.4727 8.90024L14.2664 8.26037Z" fill="#006D56"/>
</svg>
