<svg width="18" height="26" viewBox="0 0 18 26" fill="none" xmlns="http://www.w3.org/2000/svg">
<path d="M16.7118 7.60718C16.6568 7.30044 16.6699 6.9881 16.7502 6.6853C16.8326 6.3885 16.8745 6.08527 16.875 5.78082C16.878 4.98495 16.5905 4.20649 16.0498 3.54741C15.5094 2.88832 14.7408 2.3787 13.8442 2.0854L11.25 1.22841C10.926 1.12188 10.6317 0.961672 10.3859 0.757522L9.79753 0.271921C9.58659 0.0978279 9.30056 0 9.00224 0C8.70392 0 8.41789 0.0978279 8.20695 0.271921L7.61733 0.758562C7.37022 0.962505 7.07516 1.12251 6.74998 1.22842L4.15243 2.08647C3.2564 2.38015 2.4885 2.88939 1.94863 3.54827C1.40847 4.20735 1.12145 4.98539 1.12499 5.78083C1.12549 6.08591 1.16768 6.38993 1.25105 6.68695C1.3304 6.98934 1.34296 7.30104 1.28821 7.60719C0.902747 7.75765 0.577079 7.99517 0.349055 8.29237C0.121038 8.58958 0 8.93427 0 9.28599V16.7141C0 17.0658 0.121038 17.4105 0.349055 17.7077C0.577073 18.0049 0.902773 18.2424 1.28821 18.3929C1.34321 18.6996 1.33015 19.012 1.24979 19.3148C1.16692 19.6118 1.12499 19.9154 1.12499 20.22C1.12223 21.0159 1.40976 21.7939 1.95042 22.453C2.49083 23.1119 3.25948 23.6214 4.15576 23.9146L6.75004 24.7716C7.07398 24.8781 7.36829 25.0383 7.61411 25.2425L8.20248 25.7281C8.41341 25.9022 8.69944 26 8.99776 26C9.29608 26 9.58211 25.9022 9.79305 25.7281L10.3827 25.2414C10.6298 25.0375 10.9248 24.8775 11.25 24.7716L13.8476 23.9135C14.7436 23.6199 15.5115 23.1106 16.0514 22.4517C16.5915 21.7927 16.8785 21.0146 16.875 20.2192C16.875 19.9139 16.8326 19.6094 16.749 19.312C16.6696 19.01 16.657 18.6985 16.7118 18.3928C17.0973 18.2423 17.4229 18.0048 17.6509 17.7076C17.879 17.4104 18 17.0657 18 16.714V9.28592C18 8.93421 17.879 8.58954 17.6509 8.29231C17.4229 7.9951 17.0972 7.75765 16.7118 7.60718Z" fill="#006D56"/>
</svg>
