<svg width="18" height="14" viewBox="0 0 18 14" fill="none" xmlns="http://www.w3.org/2000/svg">
<path d="M10.0667 4.26119L9.59772 4.29037L9.26315 4.31119C6.68567 4.50211 4.69028 5.35331 3.24876 6.80442C1.80298 8.25983 0.866596 10.3668 0.502877 13.1548L10.0667 4.26119ZM10.0667 4.26119V3.79134M10.0667 4.26119V3.79134M10.0667 3.79134V0.809329C10.0667 0.691219 10.1308 0.594502 10.2475 0.538653C10.3645 0.48264 10.4988 0.487111 10.6041 0.553825L10.6677 0.605481L17.4017 6.78291C17.5184 6.89029 17.529 7.04976 17.4451 7.1651L17.3885 7.2253L10.6568 13.4048C10.6568 13.4048 10.6567 13.4049 10.6567 13.4049C10.552 13.5008 10.4158 13.5216 10.2895 13.4785C10.1658 13.4362 10.0908 13.3477 10.0715 13.2494L10.0667 13.1746V10.2566V9.71323M10.0667 3.79134V9.71323M10.0667 9.71323L9.52521 9.75828M10.0667 9.71323L9.52521 9.75828M9.52521 9.75828L9.1382 9.79047L9.1382 9.7904M9.52521 9.75828L9.1382 9.7904M9.1382 9.7904L9.12987 9.79124M9.1382 9.7904L9.12987 9.79124M9.12987 9.79124C6.3131 10.0731 3.63273 11.2864 1.07911 13.4144M9.12987 9.79124L1.07911 13.4144M1.07911 13.4144C0.956838 13.5162 0.803316 13.5231 0.674424 13.4576C0.547391 13.3929 0.486215 13.2827 0.502871 13.1548L1.07911 13.4144Z" fill="#006D56" stroke="#006D56"/>
</svg>
