<svg width="21" height="20" viewBox="0 0 21 20" fill="none" xmlns="http://www.w3.org/2000/svg">
<path d="M15.9189 12.3201C15.6599 12.5711 15.5409 12.9341 15.5999 13.2901L16.4889 18.2101C16.5639 18.6271 16.3879 19.0491 16.0389 19.2901C15.6969 19.5401 15.2419 19.5701 14.8689 19.3701L10.4399 17.0601C10.2859 16.9781 10.1149 16.9341 9.93988 16.9291H9.66888C9.57488 16.9431 9.48288 16.9731 9.39888 17.0191L4.96888 19.3401C4.74988 19.4501 4.50188 19.4891 4.25888 19.4501C3.66688 19.3381 3.27188 18.7741 3.36888 18.1791L4.25888 13.2591C4.31788 12.9001 4.19888 12.5351 3.93988 12.2801L0.328876 8.7801C0.0268758 8.4871 -0.0781242 8.0471 0.0598758 7.6501C0.193876 7.2541 0.535876 6.9651 0.948876 6.9001L5.91888 6.1791C6.29688 6.1401 6.62888 5.9101 6.79888 5.5701L8.98888 1.0801C9.04088 0.980099 9.10788 0.888099 9.18888 0.810099L9.27888 0.740099C9.32588 0.688099 9.37988 0.645099 9.43988 0.610099L9.54888 0.570099L9.71888 0.500099H10.1399C10.5159 0.539099 10.8469 0.764099 11.0199 1.1001L13.2389 5.5701C13.3989 5.8971 13.7099 6.1241 14.0689 6.1791L19.0389 6.9001C19.4589 6.9601 19.8099 7.2501 19.9489 7.6501C20.0799 8.0511 19.9669 8.4911 19.6589 8.7801L15.9189 12.3201Z" fill="#006D56"/>
</svg>
