<svg width="22" height="19" viewBox="0 0 22 19" fill="none" xmlns="http://www.w3.org/2000/svg">
<path fill-rule="evenodd" clip-rule="evenodd" d="M17.9795 17.9847L21.5344 0.88557C21.6259 0.44462 21.1926 0.0767506 20.7727 0.23914L0.964021 7.8808C0.475125 8.06912 0.479315 8.7613 0.969607 8.94497L5.79626 10.7463L7.66446 16.7545C7.78403 17.1391 8.25457 17.2814 8.56678 17.0261L11.2573 14.8329C11.5393 14.6029 11.941 14.5915 12.2356 14.8055L17.0883 18.3286C17.4224 18.5713 17.8958 18.3884 17.9795 17.9847ZM7.36361 9.78745L16.7967 3.97769C16.9661 3.87362 17.1406 4.10284 16.9948 4.23783L9.20994 11.4743C8.93623 11.7289 8.75981 12.07 8.70974 12.44L8.44468 14.4052C8.40937 14.6676 8.04097 14.6935 7.96842 14.4396L6.94853 10.8559C6.83189 10.4472 7.00206 10.0106 7.36361 9.78745Z" fill="#3474DF"/>
</svg>
